{
  "accessors": [
    {
      "bufferView": 2,
      "componentType": 5126,
      "count": 1085,
      "max": [
        31.853755950927734,
        57.145370483398438,
        106.86907958984375
      ],
      "min": [
        -31.853755950927734,
        -40.960296630859375,
        0.018433000892400742
      ],
      "type": "VEC3"
    },
    {
      "bufferView": 2,
      "byteOffset": 13020,
      "componentType": 5126,
      "count": 1085,
      "max": [
        0.99785822629928589,
        0.9973943829536438,
        0.9999961256980896
      ],
      "min": [
        -0.99785822629928589,
        -0.9998096227645874,
        -0.9999956488609314
      ],
      "type": "VEC3"
    },
    {
      "bufferView": 3,
      "componentType": 5126,
      "count": 1085,
      "max": [
        0.99977445602416992,
        0.99999797344207764,
        0.99015587568283081,
        1
      ],
      "min": [
        -0.99977445602416992,
        -0.99999570846557617,
        -0.99944519996643066,
        -1
      ],
      "type": "VEC4"
    },
    {
      "bufferView": 1,
      "componentType": 5126,
      "count": 1085,
      "max": [
        0.9949759840965271,
        0.99744802713394165
      ],
      "min": [
        0.0058720000088214874,
        0.0051270001567900181
      ],
      "type": "VEC2"
    },
    {
      "bufferView": 0,
      "componentType": 5125,
      "count": 4722,
      "max": [
        1084
      ],
      "min": [
        0
      ],
      "type": "SCALAR"
    }
  ],
  "asset": {
    "extras": {
      "author": "sambasivarao (https://sketchfab.com/sambasivarao)",
      "license": "CC-BY-4.0 (http://creativecommons.org/licenses/by/4.0/)",
      "source": "https://sketchfab.com/3d-models/goat-a1008ad98bdf420e80d46c29af1928c4",
      "title": "Goat"
    },
    "generator": "Sketchfab-10.28.0",
    "version": "2.0"
  },
  "bufferViews": [
    {
      "buffer": 0,
      "byteLength": 18888,
      "byteOffset": 0,
      "name": "floatBufferViews",
      "target": 34963
    },
    {
      "buffer": 0,
      "byteLength": 8680,
      "byteOffset": 18888,
      "byteStride": 8,
      "name": "floatBufferViews",
      "target": 34962
    },
    {
      "buffer": 0,
      "byteLength": 26040,
      "byteOffset": 27568,
      "byteStride": 12,
      "name": "floatBufferViews",
      "target": 34962
    },
    {
      "buffer": 0,
      "byteLength": 17360,
      "byteOffset": 53608,
      "byteStride": 16,
      "name": "floatBufferViews",
      "target": 34962
    }
  ],
  "buffers": [
    {
      "byteLength": 70968,
      "uri": "scene.bin"
    }
  ],
  "images": [
    {
      "uri": "textures/Goat_Bagot_Adult_Texture_Opt2SG_baseColor.png"
    },
    {
      "uri": "textures/Goat_Bagot_Adult_Texture_Opt2SG_metallicRoughness.png"
    },
    {
      "uri": "textures/Goat_Bagot_Adult_Texture_Opt2SG_normal.png"
    }
  ],
  "materials": [
    {
      "doubleSided": true,
      "name": "Goat_Bagot_Adult_Texture_Opt2SG",
      "normalTexture": {
        "index": 2,
        "scale": 1,
        "texCoord": 0
      },
      "pbrMetallicRoughness": {
        "baseColorFactor": [
          1,
          1,
          1,
          1
        ],
        "baseColorTexture": {
          "index": 0,
          "texCoord": 0
        },
        "metallicFactor": 0.94413688901859927,
        "metallicRoughnessTexture": {
          "index": 1,
          "texCoord": 0
        },
        "roughnessFactor": 0.91373602320194081
      }
    }
  ],
  "meshes": [
    {
      "primitives": [
        {
          "attributes": {
            "NORMAL": 1,
            "POSITION": 0,
            "TANGENT": 2,
            "TEXCOORD_0": 3
          },
          "indices": 4,
          "material": 0,
          "mode": 4
        }
      ]
    }
  ],
  "nodes": [
    {
      "children": [
        1
      ],
      "name": "RootNode (gltf orientation matrix)",
      "rotation": [
        -0.70710678118654746,
        -0,
        -0,
        0.70710678118654757
      ]
    },
    {
      "children": [
        2
      ],
      "name": "RootNode (model correction matrix)"
    },
    {
      "children": [
        3
      ],
      "name": "9a85d09d96fb4ef38560b17872a4900e.obj.cleaner.materialmerger.gles"
    },
    {
      "mesh": 0,
      "name": ""
    }
  ],
  "samplers": [
    {
      "magFilter": 9729,
      "minFilter": 9987,
      "wrapS": 10497,
      "wrapT": 10497
    }
  ],
  "scene": 0,
  "scenes": [
    {
      "name": "OSG_Scene",
      "nodes": [
        0
      ]
    }
  ],
  "textures": [
    {
      "sampler": 0,
      "source": 0
    },
    {
      "sampler": 0,
      "source": 1
    },
    {
      "sampler": 0,
      "source": 2
    }
  ]
}

